<?xml version="1.0" encoding="iso-8859-1"?>
<!-- Uploaded to: SVG Repo, www.svgrepo.com, Generator: SVG Repo Mixer Tools -->
<svg fill="#000000" height="800px" width="800px" version="1.1" id="Layer_1" xmlns="http://www.w3.org/2000/svg" xmlns:xlink="http://www.w3.org/1999/xlink" 
	 viewBox="0 0 511.999 511.999" xml:space="preserve">
<g>
	<g>
		<path d="M469.319,40.047l-4.683-4.676c-32.057-32.06-78.801-43.398-121.99-29.588c-45.614,14.587-78.194,54.671-83.195,102.247
			l1.698,75.026c0.083,3.616-1.318,7.109-3.876,9.667L15.027,434.969c-4.978,4.978-7.719,11.596-7.719,18.636
			c0,7.039,2.741,13.659,7.719,18.636l17.42,17.418c10.276,10.276,26.996,10.276,37.274,0c2.554-2.554,5.945-3.88,9.369-3.88
			c2.353,0,4.72,0.625,6.845,1.908l40.254,24.313l4.352-4.352l-12.399-57.854c-0.942-4.394,0.409-8.967,3.586-12.143l8.141-8.141
			c5.174-5.172,13.559-5.172,18.735,0l28.769,28.768l25.124-25.124l-7.747-61.272c-0.514-4.061,0.88-8.134,3.775-11.028
			l113.443-113.443c2.559-2.558,6.034-3.981,9.668-3.876l75.024,1.697c47.576-4.998,87.661-37.58,102.248-83.194
			C512.718,118.851,501.38,72.107,469.319,40.047z M437.778,175.385c-14.954,14.953-34.597,22.431-54.239,22.431
			c-19.641,0-39.283-7.478-54.238-22.431c-14.488-14.488-22.466-33.75-22.466-54.238s7.979-39.752,22.466-54.239
			c29.91-29.906,78.569-29.905,108.478,0c14.488,14.488,22.467,33.751,22.467,54.239S452.266,160.897,437.778,175.385z"/>
	</g>
</g>
</svg>